#define mic_width 64
#define mic_height 64
static unsigned char mic_bits[] = {
   0x00, 0xf8, 0x0f, 0x00, 0x00, 0x00, 0x00, 0x00, 0x00, 0xfe, 0x3f, 0x00,
   0x00, 0x00, 0x00, 0x00, 0x80, 0xff, 0x7f, 0x00, 0x00, 0x00, 0x00, 0x00,
   0xc0, 0x87, 0xfc, 0x00, 0x00, 0x00, 0x00, 0x00, 0xe0, 0x03, 0xf0, 0x01,
   0x00, 0x00, 0x00, 0x00, 0xf0, 0x07, 0xe0, 0x03, 0x00, 0x00, 0x00, 0x00,
   0x70, 0xf8, 0xc0, 0x03, 0x00, 0x00, 0x00, 0x00, 0x38, 0x00, 0x9f, 0x07,
   0x00, 0x00, 0x00, 0x00, 0xfc, 0x00, 0xe0, 0x07, 0x00, 0x00, 0x00, 0x00,
   0x1c, 0x0f, 0x80, 0x07, 0x00, 0x00, 0x00, 0x00, 0x1c, 0xf0, 0x81, 0x07,
   0x00, 0x00, 0x00, 0x00, 0x1c, 0x00, 0x9e, 0x07, 0x00, 0x00, 0x00, 0x00,
   0x7c, 0x00, 0xe0, 0x07, 0x00, 0x00, 0x00, 0x00, 0x9c, 0x07, 0x80, 0x07,
   0x00, 0x00, 0x00, 0x00, 0x1c, 0xf8, 0x80, 0x07, 0x00, 0x00, 0x00, 0x00,
   0x1c, 0x00, 0x8f, 0x07, 0x00, 0x00, 0x00, 0x00, 0x3c, 0x00, 0xf0, 0x0f,
   0x00, 0x00, 0x00, 0x00, 0xdc, 0x03, 0xc0, 0x1f, 0x00, 0x00, 0x00, 0x00,
   0x3c, 0x3c, 0xe0, 0x3f, 0x00, 0x00, 0x00, 0x00, 0x38, 0xc0, 0xf3, 0x3f,
   0x00, 0x00, 0x00, 0x00, 0x78, 0x00, 0xfc, 0x7f, 0x00, 0x00, 0x00, 0x00,
   0xf0, 0x01, 0xfc, 0xff, 0x00, 0x00, 0x00, 0x00, 0xc0, 0xe7, 0xfe, 0xff,
   0x01, 0x00, 0x00, 0x00, 0x80, 0xff, 0xff, 0xff, 0x01, 0x00, 0x00, 0x00,
   0x00, 0xfe, 0xff, 0xff, 0x03, 0x00, 0x00, 0x00, 0x00, 0x3c, 0xff, 0xff,
   0x07, 0x00, 0x00, 0x00, 0x00, 0x00, 0xfe, 0xff, 0x0f, 0x00, 0x00, 0x00,
   0x00, 0x00, 0xfc, 0xff, 0x0f, 0x00, 0x00, 0x00, 0x00, 0x00, 0xf8, 0xff,
   0x1f, 0x00, 0x00, 0x00, 0x00, 0x00, 0xf0, 0xff, 0x3f, 0x00, 0x00, 0x00,
   0x00, 0x00, 0xe0, 0xff, 0x7f, 0x00, 0x00, 0x00, 0x00, 0x00, 0x80, 0xff,
   0x7f, 0x00, 0x00, 0x00, 0x00, 0x00, 0x00, 0xff, 0xff, 0x00, 0x00, 0x00,
   0x00, 0x00, 0x00, 0xfe, 0xff, 0x01, 0x00, 0x00, 0x00, 0x00, 0x00, 0xfc,
   0xff, 0x01, 0x00, 0x00, 0x00, 0x00, 0x00, 0xf8, 0xff, 0x03, 0x00, 0x00,
   0x00, 0x00, 0x00, 0xf0, 0xff, 0x07, 0x00, 0x00, 0x00, 0x00, 0x00, 0xe0,
   0xff, 0x0f, 0x00, 0x00, 0x00, 0x00, 0x00, 0x80, 0xff, 0x0f, 0x00, 0x00,
   0x00, 0x00, 0x00, 0x00, 0xff, 0x1f, 0x00, 0x00, 0x00, 0x00, 0x00, 0x00,
   0xfe, 0x3f, 0x00, 0x00, 0x00, 0x00, 0x00, 0x00, 0xfc, 0x7f, 0x00, 0x00,
   0x00, 0x00, 0x00, 0x00, 0xf8, 0x7f, 0x00, 0x00, 0x00, 0x00, 0x00, 0x00,
   0xf0, 0xff, 0x00, 0x00, 0x00, 0x00, 0x00, 0x00, 0xe0, 0xff, 0x01, 0x00,
   0x00, 0x00, 0x00, 0x00, 0x80, 0xff, 0x01, 0x00, 0x00, 0x00, 0x00, 0x00,
   0x00, 0xff, 0x00, 0x00, 0x00, 0x00, 0x00, 0x00, 0x00, 0xfe, 0x01, 0x00,
   0x00, 0x00, 0x00, 0x00, 0x00, 0xfc, 0x07, 0x00, 0x00, 0x00, 0x00, 0x00,
   0x00, 0x98, 0x3f, 0x00, 0x00, 0x00, 0x00, 0x00, 0x00, 0x00, 0xfe, 0x01,
   0x00, 0x00, 0x00, 0x00, 0x00, 0x00, 0xf8, 0x3f, 0x00, 0x00, 0x00, 0x00,
   0x00, 0x00, 0xc0, 0x7f, 0x00, 0x00, 0x00, 0x00, 0x00, 0x00, 0x00, 0xfe,
   0x00, 0x00, 0x00, 0x00, 0x00, 0x00, 0x00, 0xe0, 0x00, 0x00, 0x00, 0x00,
   0x00, 0x00, 0x00, 0xc0, 0x00, 0x00, 0x00, 0x00, 0x00, 0x00, 0x00, 0xe0,
   0x00, 0x00, 0x00, 0x00, 0x00, 0xe0, 0x7f, 0xf0, 0x00, 0x00, 0x00, 0x00,
   0x80, 0xff, 0xff, 0x7f, 0x00, 0x00, 0x00, 0x00, 0xc0, 0xff, 0xff, 0x3f,
   0x00, 0x00, 0x00, 0x00, 0xe0, 0x3f, 0xc0, 0x0f, 0x00, 0x00, 0x00, 0x00,
   0xe0, 0x00, 0x00, 0x00, 0x00, 0x00, 0x00, 0x00, 0x70, 0x00, 0x00, 0x00,
   0x00, 0x00, 0x00, 0x00, 0x70, 0x00, 0x00, 0x00 };
