#define open_width 64
#define open_height 64
static unsigned char open_bits[] = {
   0x00, 0x00, 0x00, 0x00, 0x00, 0xc0, 0x07, 0x00, 0x00, 0x00, 0x00, 0x00,
   0x00, 0x80, 0x1f, 0x00, 0x00, 0x00, 0x00, 0x80, 0x07, 0x00, 0x3e, 0x00,
   0x00, 0x00, 0x00, 0xf8, 0xff, 0x00, 0x78, 0x00, 0x00, 0x00, 0x00, 0xfe,
   0xff, 0x01, 0xe0, 0x00, 0x00, 0x00, 0x80, 0xff, 0xf8, 0x07, 0xe0, 0x01,
   0x00, 0x00, 0xc0, 0x0f, 0x80, 0x0f, 0xc0, 0x01, 0x00, 0x00, 0x80, 0x01,
   0x00, 0x1e, 0x80, 0x03, 0x00, 0x00, 0x00, 0x00, 0x00, 0x3c, 0x80, 0x03,
   0x00, 0x00, 0x00, 0x00, 0x00, 0x78, 0x80, 0x07, 0x00, 0x00, 0x00, 0x00,
   0x00, 0x70, 0x00, 0x07, 0x00, 0x00, 0x00, 0x00, 0x00, 0xe0, 0x00, 0x07,
   0x00, 0x00, 0x00, 0x00, 0x00, 0xc0, 0x01, 0x0e, 0x00, 0x00, 0x00, 0x00,
   0x00, 0xc0, 0x01, 0x0e, 0x00, 0x00, 0x00, 0x00, 0x00, 0x80, 0x03, 0x1e,
   0x00, 0x00, 0x00, 0x00, 0x00, 0x80, 0x03, 0x1c, 0x00, 0x00, 0x00, 0x00,
   0x06, 0x80, 0x03, 0x1c, 0x00, 0x00, 0x00, 0xf0, 0x0f, 0x80, 0x07, 0x3c,
   0x00, 0x00, 0x80, 0xff, 0x0f, 0x00, 0x07, 0x38, 0x00, 0x00, 0xfe, 0xff,
   0x0f, 0x00, 0x07, 0x38, 0x80, 0xff, 0xff, 0xff, 0x07, 0x00, 0x07, 0x38,
   0xff, 0xff, 0xff, 0xff, 0x00, 0x00, 0x07, 0x78, 0xff, 0xff, 0xff, 0x0f,
   0x00, 0x00, 0x07, 0x70, 0xff, 0xff, 0x7f, 0x00, 0x00, 0x00, 0x07, 0x70,
   0xff, 0xff, 0x01, 0x00, 0x00, 0x00, 0x07, 0x70, 0x7f, 0x00, 0x00, 0x00,
   0x00, 0x00, 0x07, 0x70, 0x1f, 0x00, 0x00, 0x00, 0x00, 0x00, 0x07, 0x70,
   0x1f, 0x00, 0x00, 0x00, 0x00, 0x00, 0x07, 0x70, 0x1f, 0x00, 0x00, 0x00,
   0x00, 0x00, 0x07, 0x70, 0x1f, 0x00, 0x00, 0x00, 0x00, 0x00, 0x07, 0x70,
   0x1f, 0x00, 0x00, 0x00, 0x00, 0x00, 0x07, 0x70, 0xff, 0xff, 0xff, 0xe0,
   0x0f, 0xfe, 0xff, 0xff, 0xff, 0xff, 0xff, 0xf1, 0x1f, 0xff, 0xff, 0xff,
   0xff, 0xff, 0xff, 0xe0, 0x0f, 0xfe, 0xff, 0xff, 0x1f, 0x00, 0x00, 0x00,
   0x00, 0x00, 0x07, 0x70, 0x1f, 0x00, 0x00, 0x00, 0x00, 0x00, 0x07, 0x70,
   0x1f, 0x00, 0x00, 0x00, 0x00, 0x00, 0x07, 0x70, 0x1f, 0x00, 0x00, 0x00,
   0x00, 0x00, 0x07, 0x70, 0x7f, 0x00, 0x00, 0x00, 0x00, 0x00, 0x07, 0x70,
   0xff, 0xff, 0x01, 0x00, 0x00, 0x00, 0x07, 0x70, 0xff, 0xff, 0x1f, 0x00,
   0x00, 0x00, 0x07, 0x70, 0xff, 0xff, 0x7f, 0x00, 0x00, 0x00, 0x07, 0x70,
   0xff, 0xff, 0xff, 0x0f, 0x00, 0x00, 0x07, 0x70, 0x80, 0xff, 0xff, 0xff,
   0x00, 0x00, 0x07, 0x78, 0x00, 0x00, 0xfe, 0xff, 0x03, 0x00, 0x07, 0x38,
   0x00, 0x00, 0xe0, 0xff, 0x07, 0x00, 0x07, 0x38, 0x00, 0x00, 0x80, 0xff,
   0x07, 0x00, 0x07, 0x38, 0x00, 0x00, 0x00, 0xf0, 0x07, 0x80, 0x07, 0x3c,
   0x00, 0x00, 0x00, 0x00, 0x03, 0x80, 0x03, 0x1c, 0x00, 0x00, 0x00, 0x00,
   0x00, 0x80, 0x03, 0x1c, 0x00, 0x00, 0x00, 0x00, 0x00, 0x80, 0x03, 0x1e,
   0x00, 0x00, 0x00, 0x00, 0x00, 0xc0, 0x01, 0x0e, 0x00, 0x00, 0x00, 0x00,
   0x00, 0xc0, 0x01, 0x0e, 0x00, 0x00, 0x00, 0x00, 0x00, 0xe0, 0x00, 0x07,
   0x00, 0x00, 0x00, 0x00, 0x00, 0x70, 0x00, 0x07, 0x00, 0x00, 0x00, 0x00,
   0x00, 0x78, 0x80, 0x07, 0x00, 0x00, 0x00, 0x00, 0x00, 0x3c, 0x80, 0x03,
   0x00, 0x00, 0x80, 0x01, 0x00, 0x1e, 0x80, 0x03, 0x00, 0x00, 0xc0, 0x0f,
   0x80, 0x0f, 0xc0, 0x01, 0x00, 0x00, 0x80, 0xff, 0xf8, 0x07, 0xe0, 0x01,
   0x00, 0x00, 0x00, 0xfe, 0xff, 0x01, 0xe0, 0x00, 0x00, 0x00, 0x00, 0xf8,
   0xff, 0x00, 0x78, 0x00, 0x00, 0x00, 0x00, 0x80, 0x07, 0x00, 0x3e, 0x00,
   0x00, 0x00, 0x00, 0x00, 0x00, 0x80, 0x1f, 0x00 };
